<?xml version="1.0" standalone="no"?>
<!DOCTYPE svg PUBLIC "-//W3C//DTD SVG 20010904//EN"
 "http://www.w3.org/TR/2001/REC-SVG-20010904/DTD/svg10.dtd">
<svg version="1.0" xmlns="http://www.w3.org/2000/svg"
 width="500.000000pt" height="500.000000pt" viewBox="0 0 500.000000 500.000000"
 preserveAspectRatio="xMidYMid meet">

<g transform="translate(0.000000,500.000000) scale(0.100000,-0.100000)"
fill="#000000" stroke="none">
<path d="M2365 3250 c-67 -14 -202 -67 -263 -104 -235 -143 -374 -408 -359
-686 7 -122 31 -210 90 -325 57 -111 190 -243 302 -301 111 -58 125 -61 125
-32 0 19 -12 30 -57 52 -183 89 -317 241 -381 433 -23 68 -26 95 -26 213 0
122 2 143 27 215 125 358 480 560 837 475 278 -67 493 -292 541 -567 17 -95 6
-252 -23 -338 -78 -234 -271 -416 -504 -475 -43 -11 -94 -20 -116 -20 -34 0
-38 -3 -38 -25 0 -23 4 -25 43 -25 43 0 159 28 232 56 158 61 335 236 406 402
60 139 76 333 39 478 -11 43 -41 122 -67 174 -39 80 -61 109 -137 186 -77 76
-106 98 -186 137 -127 63 -227 87 -349 86 -53 -1 -114 -5 -136 -9z"/>
<path d="M2272 3080 c-69 -42 -90 -120 -49 -181 50 -76 141 -87 203 -25 43 43
52 92 28 143 -37 75 -117 103 -182 63z m128 -50 c14 -14 20 -33 20 -65 0 -59
-25 -85 -81 -85 -53 0 -74 13 -88 51 -12 35 -6 76 17 102 22 25 105 24 132 -3z"/>
<path d="M2614 3086 c-36 -16 -72 -62 -80 -104 -18 -89 102 -181 182 -139 57
30 79 64 79 122 0 43 -5 59 -25 80 -50 54 -98 66 -156 41z m125 -62 c12 -15
21 -41 21 -59 0 -18 -9 -44 -21 -59 -17 -22 -28 -26 -70 -26 -65 0 -89 23 -89
85 0 62 24 85 89 85 42 0 53 -4 70 -26z"/>
<path d="M2280 2761 c-78 -25 -157 -98 -181 -167 -21 -59 -20 -481 1 -494 8
-5 106 -10 218 -10 l202 0 0 -84 c0 -65 4 -87 16 -97 15 -12 27 -3 108 84 l91
97 77 0 c112 0 108 -9 108 234 0 149 -4 215 -15 252 -47 158 -206 232 -347
160 l-56 -28 -56 27 c-60 29 -125 40 -166 26z m145 -58 c39 -19 44 -38 20 -83
-9 -16 -18 -50 -21 -74 -6 -41 -4 -48 24 -75 37 -38 61 -39 102 -4 29 24 32
31 28 73 -3 25 -12 61 -21 80 -27 53 -22 66 28 85 31 12 63 16 105 13 72 -5
123 -40 158 -108 21 -42 22 -56 22 -257 l0 -213 -67 0 -68 0 -72 -75 c-40 -41
-77 -75 -83 -75 -6 0 -10 27 -10 63 0 36 -5 68 -12 75 -9 9 -72 12 -221 12
l-209 0 4 223 c3 238 7 255 60 303 60 55 161 71 233 37z m100 -105 c3 -13 6
-41 8 -63 2 -38 1 -40 -30 -43 -33 -3 -33 -3 -33 43 0 52 14 85 35 85 8 0 17
-10 20 -22z"/>
<path d="M2310 2353 c-43 -15 -52 -65 -15 -89 23 -15 27 -15 51 0 18 13 24 24
22 43 -3 29 -35 53 -58 46z"/>
<path d="M2490 2353 c-43 -15 -52 -65 -15 -89 23 -15 27 -15 51 0 18 13 24 24
22 43 -3 29 -35 53 -58 46z"/>
<path d="M2670 2353 c-43 -15 -52 -65 -15 -89 23 -15 27 -15 51 0 18 13 24 24
22 43 -3 29 -35 53 -58 46z"/>
</g>
</svg>
