<?xml version="1.0" encoding="UTF-8"?>
<svg version="1.1" xmlns="http://www.w3.org/2000/svg" width="500" height="500">
<path d="M0 0 C0.68449219 0.59167969 1.36898437 1.18335938 2.07421875 1.79296875 C16.64198978 15.21592477 24.02099241 34.56969863 25.1796875 54.015625 C25.69260185 75.78598979 18.09815759 94.91508907 3.234375 110.7265625 C2.49703125 111.47679687 1.7596875 112.22703125 1 113 C0.38640625 113.62648438 -0.2271875 114.25296875 -0.859375 114.8984375 C-13.72328865 127.04768928 -32.2998625 134.40689971 -50 134 C-51 133 -51 133 -51.0625 130.4375 C-51.041875 129.633125 -51.02125 128.82875 -51 128 C-49.92363281 127.84144531 -48.84726563 127.68289063 -47.73828125 127.51953125 C-30.7654044 124.87063029 -17.01053332 119.38421665 -4 108 C-3.34 108 -2.68 108 -2 108 C-1.73574219 107.41992188 -1.47148437 106.83984375 -1.19921875 106.2421875 C0.04909202 103.90821232 1.47527282 102.13892396 3.1875 100.125 C13.62541465 86.87603944 19.27408042 69.89336262 18 53 C15.65980284 33.40580679 8.57089259 15.95436698 -7 3 C-24.73294191 -10.29410184 -44.80666217 -14.56936028 -66.76171875 -11.46875 C-69.58439778 -10.78983112 -72.26769122 -9.97734218 -75 -9 C-75.81855469 -8.74476563 -76.63710937 -8.48953125 -77.48046875 -8.2265625 C-93.11327105 -2.80851655 -104.88903042 8.95619845 -113 23 C-113.39058594 23.65613281 -113.78117188 24.31226563 -114.18359375 24.98828125 C-115.26596587 26.95508196 -116.15164011 28.92097211 -117 31 C-117.37253906 31.91136719 -117.74507812 32.82273438 -118.12890625 33.76171875 C-124.46367842 52.05971919 -122.25152925 72.03861428 -114.1875 89.3125 C-111.33324854 94.70545754 -108.00997805 99.41080289 -104 104 C-103.50242188 104.59167969 -103.00484375 105.18335938 -102.4921875 105.79296875 C-95.21404478 113.78429631 -84.72923014 119.52455414 -75 124 C-75 125.65 -75 127.3 -75 129 C-75.66 129.33 -76.32 129.66 -77 130 C-79.59582348 128.89264871 -82.05967879 127.72875722 -84.5625 126.4375 C-85.28832275 126.06616943 -86.01414551 125.69483887 -86.76196289 125.31225586 C-106.38294519 115.13426895 -119.4762725 99.59359766 -126.375 78.4375 C-131.56651622 57.1895222 -128.76117661 35.88438829 -117.93359375 17.0234375 C-105.91468687 -1.76976234 -87.74084244 -14.18101072 -66 -19 C-42.11545893 -23.03953312 -17.98064795 -16.21722188 0 0 Z " fill="#191919" transform="translate(302,193)"/>
<path d="M0 0 C2.83588129 1.29788445 2.83588129 1.29788445 4.9375 0.2578125 C5.618125 -0.11601562 6.29875 -0.48984375 7 -0.875 C13.20018833 -4.23343535 18.7563414 -5.21337201 25.63671875 -3.24609375 C33.88707579 -0.10133883 39.11160939 3.99127968 43 12 C45.03299932 17.81511493 45.30687659 23.07100891 45.30078125 29.203125 C45.30506638 30.16273132 45.3093515 31.12233765 45.31376648 32.11102295 C45.31948394 34.12804375 45.32002921 36.14508517 45.31567383 38.16210938 C45.31249562 41.25425883 45.33606802 44.34546735 45.36132812 47.4375 C45.36359949 49.40104046 45.36430537 51.36458349 45.36328125 53.328125 C45.372491 54.25312805 45.38170074 55.1781311 45.39118958 56.13116455 C45.38496078 56.9892572 45.37873199 57.84734985 45.37231445 58.73144531 C45.37294388 59.48532532 45.3735733 60.23920532 45.3742218 61.01593018 C44.89221195 63.57147662 44.08325316 64.47619587 42 66 C39.60175645 65.9362015 37.20521629 65.79978875 34.8125 65.625 C29.05537264 65.5455274 25.74387403 66.78456327 21.5625 70.8046875 C18.09731668 74.48024995 14.87405249 78.34768081 11.7824707 82.34179688 C9.54940678 84.41917945 8.02265346 84.82614003 5 85 C3 83 3 83 2.8046875 79.0859375 C2.81799624 77.51550649 2.84186398 75.94513779 2.875 74.375 C2.88402344 73.57320313 2.89304688 72.77140625 2.90234375 71.9453125 C2.92593777 69.96341477 2.96180935 67.98167019 3 66 C1.76846191 66.00523682 0.53692383 66.01047363 -0.73193359 66.01586914 C-5.29035722 66.03393553 -9.84877767 66.04543804 -14.40722656 66.05493164 C-16.38216687 66.0599681 -18.35710343 66.06679751 -20.33203125 66.07543945 C-23.16667605 66.08753508 -26.00127166 66.0932351 -28.8359375 66.09765625 C-29.72243988 66.10281754 -30.60894226 66.10797882 -31.52230835 66.11329651 C-37.77225659 66.11387171 -37.77225659 66.11387171 -40 65 C-41.30100574 61.09698279 -41.16250112 57.37728012 -41.16796875 53.30859375 C-41.17129715 52.44871353 -41.17462555 51.58883331 -41.17805481 50.70289612 C-41.18311957 48.87965428 -41.18546327 47.05640316 -41.18530273 45.2331543 C-41.18747262 42.47233277 -41.20558676 39.71192182 -41.22460938 36.95117188 C-41.22754688 35.17448052 -41.22952928 33.39778728 -41.23046875 31.62109375 C-41.23765427 30.8071666 -41.24483978 29.99323944 -41.25224304 29.15464783 C-41.21495869 19.57623024 -40.12785435 11.28738759 -33.2421875 4.1875 C-22.68201123 -5.75148943 -12.7905301 -5.74881227 0 0 Z M-30.375 10.375 C-34.09949575 16.39149313 -34.2821743 22.34043173 -34.1953125 29.21484375 C-34.1924826 30.07058487 -34.18965271 30.92632599 -34.18673706 31.80799866 C-34.17561935 34.51797991 -34.15053082 37.22762009 -34.125 39.9375 C-34.11495931 41.78450041 -34.10583537 43.63150604 -34.09765625 45.47851562 C-34.07570763 49.98580677 -34.04123654 54.49284573 -34 59 C-32.73293213 59.02505615 -31.46586426 59.0501123 -30.16040039 59.07592773 C-25.47702221 59.16981996 -20.7937987 59.27008435 -16.1105957 59.37231445 C-14.08035896 59.41573241 -12.05008408 59.45740226 -10.01977539 59.49731445 C-7.10811849 59.55485146 -4.19665486 59.61859278 -1.28515625 59.68359375 C-0.3716188 59.70030624 0.54191864 59.71701874 1.48313904 59.73423767 C7.88612829 59.88612829 7.88612829 59.88612829 9 61 C9.23481693 63.18292774 9.41363323 65.37203174 9.5625 67.5625 C9.64628906 68.76003906 9.73007812 69.95757812 9.81640625 71.19140625 C9.87699219 72.11824219 9.93757813 73.04507813 10 74 C10.66 73.34 11.32 72.68 12 72 C12.44988281 71.55140625 12.89976562 71.1028125 13.36328125 70.640625 C14.59490076 69.40606606 15.82044238 68.16543911 17.04296875 66.921875 C18.10451172 65.84679687 18.10451172 65.84679687 19.1875 64.75 C19.86167969 64.06421875 20.53585937 63.3784375 21.23046875 62.671875 C24.47694605 59.60456312 27.25985323 59.7370689 31.625 59.4375 C32.81351562 59.35371094 34.00203125 59.26992188 35.2265625 59.18359375 C36.14179688 59.12300781 37.05703125 59.06242187 38 59 C38.09935879 53.30750541 38.17169923 47.61552282 38.21972656 41.92236328 C38.23976141 39.98835448 38.26699729 38.05440565 38.30175781 36.12060547 C38.35063571 33.33025257 38.37305019 30.54070499 38.390625 27.75 C38.41127014 26.89446533 38.43191528 26.03893066 38.45318604 25.1574707 C38.45569484 18.3462428 36.7306358 13.09472057 32.18359375 7.94140625 C31.60738281 7.48636719 31.03117187 7.03132812 30.4375 6.5625 C29.85871094 6.08941406 29.27992188 5.61632812 28.68359375 5.12890625 C24.27516341 2.1729054 19.09038447 2.53863585 14 3 C11.44857695 3.77534411 9.37807056 4.75926753 7 6 C7.53505434 8.31856881 8.16663687 10.4116911 9.0625 12.625 C10.31770941 17.14375387 10.77245783 21.34932605 10 26 C7.46508106 29.13137045 5.92509607 29.82654449 2 30.5625 C-2.17033126 29.78056289 -3.55871269 28.44652326 -6 25 C-6.81371245 18.79544258 -5.32614564 14.71844135 -3 9 C-3 8.01 -3 7.02 -3 6 C-12.93773146 -0.44609609 -22.57547061 2.57547061 -30.375 10.375 Z M2 13 C-0.05925681 16.08888522 -0.2390374 16.70935927 -0.125 20.1875 C-0.08375 21.445625 -0.0425 22.70375 0 24 C1.65 23.67 3.3 23.34 5 23 C4.34 19.7 3.68 16.4 3 13 C2.67 13 2.34 13 2 13 Z " fill="#3085F3" transform="translate(248,226)"/>
<path d="M0 0 C5.11762818 2.65358498 8.17705942 5.53117826 10 11 C10.39614654 16.24894167 9.86557317 19.55342094 7 24 C3.3200984 27.40390898 0.73471382 28.8690782 -4.3125 29.25 C-9.66430237 28.88716594 -12.71949363 27.41893949 -16.3125 23.4375 C-19.41158224 18.96104787 -19.64214742 15.36328758 -19 10 C-15.04447429 1.93681297 -8.77608337 -1.5727748 0 0 Z M-10.9375 8.1875 C-12.35153783 10.59968218 -12.86902678 12.18407585 -13 15 C-11.42042918 19.29799298 -11.42042918 19.29799298 -8 22 C-4.16385043 22.35519903 -1.85370366 22.54724594 1.4375 20.4375 C3.60396028 17.05782196 3.56288002 14.94016013 3 11 C1.6469872 8.39685006 1.6469872 8.39685006 -1 7 C-4.53573553 6.37395427 -7.78028529 6.25243292 -10.9375 8.1875 Z " fill="#2E84F3" transform="translate(238,189)"/>
<path d="M0 0 C4.6314797 2.53420588 8.31032562 4.93097685 10 10 C10.41110876 14.22177069 10.47543683 17.87396541 8.8125 21.8125 C6.28549495 24.86233368 3.55081434 27.22459283 0 29 C-5.28667222 29.44802307 -8.95440663 29.25431583 -13.45703125 26.328125 C-17.28987936 23.0289646 -18.79439571 19.43923003 -19.5 14.5 C-18.76154019 9.3307813 -16.87559456 5.70508597 -12.9375 2.125 C-8.83017243 -0.25989988 -4.64247697 -0.65065018 0 0 Z M-10.5 8.5625 C-12.58392818 11.94888329 -12.55802097 14.09385318 -12 18 C-10.6469872 20.60314994 -10.6469872 20.60314994 -8 22 C-5.1910285 22.61014545 -2.80363979 22.65360928 0 22 C2.74612994 20.08817732 2.74612994 20.08817732 4 17 C3.94021398 13.53241058 3.60965977 11.11173251 1.9375 8.0625 C-2.2713744 5.75440759 -6.58399143 6.11499464 -10.5 8.5625 Z " fill="#2C83F3" transform="translate(271,189)"/>
<path d="M0 0 C2 2 2 2 2.375 5.4375 C2 9 2 9 0.375 11 C-2.81179601 12.34180884 -4.71109893 11.92947204 -8 11 C-10 9 -10 9 -10.25 6.0625 C-10 3 -10 3 -8 0 C-4.67679974 -1.10773342 -3.30835256 -0.93312508 0 0 Z " fill="#2D83F3" transform="translate(272,264)"/>
<path d="M0 0 C2 2 2 2 2.375 5.4375 C2 9 2 9 0.375 11 C-2.81179601 12.34180884 -4.71109893 11.92947204 -8 11 C-10 9 -10 9 -10.25 6.0625 C-10 3 -10 3 -8 0 C-4.67679974 -1.10773342 -3.30835256 -0.93312508 0 0 Z " fill="#2C83F3" transform="translate(254,264)"/>
<path d="M0 0 C2 2 2 2 2.375 5.4375 C2 9 2 9 0.375 11 C-2.81179601 12.34180884 -4.71109893 11.92947204 -8 11 C-10 9 -10 9 -10.25 6.0625 C-10 3 -10 3 -8 0 C-4.67679974 -1.10773342 -3.30835256 -0.93312508 0 0 Z " fill="#2D83F3" transform="translate(236,264)"/>
</svg>
